<?xml version="1.0" ?><svg id="Layer_1" style="enable-background:new 0 0 96 96;" version="1.1" viewBox="0 0 96 96" xml:space="preserve" xmlns="http://www.w3.org/2000/svg" xmlns:xlink="http://www.w3.org/1999/xlink"><style type="text/css">
	.st0{fill:none;stroke:#000000;stroke-width:4;stroke-miterlimit:10;}
</style><g><path d="M87,9v67.4L48.8,86.6c-0.1,0-0.4,0.1-0.8,0.1s-0.8,0-0.8-0.1L9,76.4V9h36.6h4.9H87 M90.6,3H50.4c-1.3,0-3.6,0-4.9,0H5.4   C4.1,3,3,4.1,3,5.4v73.1c0,1.3,1.1,2.7,2.4,3.1l40.3,10.7c0.7,0.2,1.5,0.3,2.4,0.3s1.7-0.1,2.4-0.3l40.3-10.7   c1.3-0.3,2.4-1.7,2.4-3.1V5.4C93,4.1,91.9,3,90.6,3L90.6,3z"/></g><line class="st0" x1="3" x2="93" y1="18" y2="18"/><g><path class="st0" d="M4,70l41.4,11.3c1.4,0.4,3.7,0.4,5.1,0L92,70"/></g><g><path d="M41.4,36h6.7l7.7,24h-5.9l-1.5-5.7h-7.5L39.4,60h-5.6L41.4,36z M42,50.1h5.2l-0.6-2.2c-0.7-2.4-1.4-5.2-2-7.7h-0.2   c-0.6,2.5-1.2,5.3-1.9,7.7L42,50.1z"/><path d="M57.2,42c0-1.5,1.1-2.5,2.5-2.5c1.5,0,2.5,1,2.5,2.5c0,1.5-1,2.5-2.5,2.5C58.3,44.5,57.2,43.5,57.2,42z M57.2,46.1h5v14h-5   V46.1z"/></g></svg>