<?xml version="1.0" encoding="iso-8859-1"?>
<!-- Generator: Adobe Illustrator 16.0.0, SVG Export Plug-In . SVG Version: 6.00 Build 0)  -->
<!DOCTYPE svg PUBLIC "-//W3C//DTD SVG 1.1//EN" "http://www.w3.org/Graphics/SVG/1.1/DTD/svg11.dtd">
<svg version="1.1" id="Capa_1" xmlns="http://www.w3.org/2000/svg" xmlns:xlink="http://www.w3.org/1999/xlink" x="0px" y="0px"
	 width="96.666px" height="96.666px" viewBox="0 0 96.666 96.666" style="enable-background:new 0 0 96.666 96.666;"
	 xml:space="preserve">
<g>
	<path d="M24.666,6H0v24.666h24.666V6z M20.666,26.666H4V10h16.666V26.666z M72,6v24.666h24.666V6H72z M92.666,26.666H76V10h16.666
		V26.666z M36,90.666h24.666V66H36V90.666z M40,70h16.666v16.666H40V70z M0,90.666h24.666V66H0V90.666z M4,70h16.666v16.666H4V70z
		 M72,90.666h24.666V66H72V90.666z M76,70h16.666v16.666H76V70z M82.105,63.066V51.333H50.833v11.333h-5V51.333H15.31v11.733h-4.454
		V34.302h4.454v12.031h66.795V34.302h4.455v28.765H82.105z"/>
</g>
<g>
</g>
<g>
</g>
<g>
</g>
<g>
</g>
<g>
</g>
<g>
</g>
<g>
</g>
<g>
</g>
<g>
</g>
<g>
</g>
<g>
</g>
<g>
</g>
<g>
</g>
<g>
</g>
<g>
</g>
</svg>
