<?xml version="1.0" encoding="iso-8859-1"?>
<!-- Generator: Adobe Illustrator 19.0.0, SVG Export Plug-In . SVG Version: 6.00 Build 0)  -->
<svg version="1.1" id="Capa_1" xmlns="http://www.w3.org/2000/svg" xmlns:xlink="http://www.w3.org/1999/xlink" x="0px" y="0px"
	 viewBox="0 0 490 490" style="enable-background:new 0 0 490 490;" xml:space="preserve">
<g>
	<g>
		<g>
			<path d="M46.3,46.7v255.9h397.4V46.7H46.3z M175.8,136.5h-0.4c0,1.9-1.2,3.5-2.7,4.3l-54.8,24.9l54.8,25.3
				c1.6,0.8,2.7,2.3,2.7,4.3v20.4c0,3.3-3.4,5.4-6.3,4.1l-82.7-38.1c-1.6-0.8-2.7-2.3-2.7-4.3v-22.2c0-1.9,1.2-3.5,2.7-4.3
				l82.5-38.4c3.2-1.5,6.9,0.9,6.9,4.4V136.5z M286.9,95.1l-76.1,163.1c-0.8,1.6-2.3,2.7-4.3,2.7h-17.2c-3.6,0-5.9-3.7-4.4-6.9
				l76-163c0.8-1.6,2.3-2.7,4.3-2.7h17.3C286,88.3,288.4,91.9,286.9,95.1z M315,215.3v-20.4c0-1.9,1.2-3.5,2.7-4.3l54.8-25.3
				l-54.8-24.9c-1.6-0.8-2.7-2.3-2.7-4.3v-20c0-3.5,3.7-5.9,6.8-4.4l82.6,38.4c1.6,0.8,2.7,2.3,2.7,4.3v21.5c0,2.4-1.4,4.5-3.5,5.5
				l-82.3,37.9C318.4,220.6,315,218.5,315,215.3z"/>
			<polygon points="159.1,435.6 330.9,435.6 302.6,368.7 187.4,368.7 			"/>
			<g>
				<path d="M0,0v349.2h490V0H0z M463.2,312.3c0,5.4-4.3,9.7-9.7,9.7H36.6c-5.4,0-9.7-4.3-9.7-9.7V36.9c0-5.4,4.3-9.7,9.7-9.7h416.9
					c5.4,0,9.7,4.3,9.7,9.7V312.3z"/>
				<rect x="103.4" y="455" width="282.7" height="35"/>
			</g>
		</g>
	</g>
</g>
<g>
</g>
<g>
</g>
<g>
</g>
<g>
</g>
<g>
</g>
<g>
</g>
<g>
</g>
<g>
</g>
<g>
</g>
<g>
</g>
<g>
</g>
<g>
</g>
<g>
</g>
<g>
</g>
<g>
</g>
</svg>
