<?xml version="1.0" encoding="iso-8859-1"?>
<!-- Generator: Adobe Illustrator 19.0.0, SVG Export Plug-In . SVG Version: 6.00 Build 0)  -->
<svg version="1.1" id="Layer_1" xmlns="http://www.w3.org/2000/svg" xmlns:xlink="http://www.w3.org/1999/xlink" x="0px" y="0px"
	 viewBox="0 0 330 330" style="enable-background:new 0 0 330 330;" xml:space="preserve">
<g id="XMLID_806_">
	<polygon id="XMLID_807_" points="200,99.997 291.213,99.997 200,8.787 	"/>
	<path id="XMLID_808_" d="M45,0c-8.284,0-15,6.716-15,15v300c0,8.284,6.716,15,15,15h240c8.284,0,15-6.716,15-15V129.997H185
		c-8.284,0-15-6.716-15-15V0H45z M184.148,185.154c5.857-5.858,15.355-5.858,21.213-0.001l30.244,30.242
		c5.859,5.857,5.859,15.355,0.002,21.213l-30.197,30.199c-2.929,2.929-6.768,4.394-10.607,4.394c-3.838,0-7.677-1.464-10.605-4.393
		c-5.858-5.857-5.859-15.355-0.001-21.213l19.591-19.592l-19.637-19.636C178.291,200.51,178.291,191.012,184.148,185.154z
		 M145.436,245.222c5.858,5.857,5.859,15.355,0.001,21.213c-2.929,2.929-6.768,4.394-10.606,4.394c-3.84,0-7.678-1.464-10.606-4.393
		l-29.829-29.827C91.58,233.795,90,229.98,90,226.002c0-3.978,1.58-7.794,4.393-10.607l29.83-29.832
		c5.857-5.858,15.355-5.858,21.213-0.001c5.858,5.857,5.859,15.355,0.001,21.213l-19.224,19.225L145.436,245.222z"/>
</g>
<g>
</g>
<g>
</g>
<g>
</g>
<g>
</g>
<g>
</g>
<g>
</g>
<g>
</g>
<g>
</g>
<g>
</g>
<g>
</g>
<g>
</g>
<g>
</g>
<g>
</g>
<g>
</g>
<g>
</g>
</svg>
